<svg width="23" height="26" viewBox="0 0 23 26" fill="none" xmlns="http://www.w3.org/2000/svg">
<path id="Vector" d="M22.5645 13.7915L12.5281 23.8458C11.1515 25.2255 9.28458 26.0003 7.33806 26C5.39154 25.9997 3.52488 25.2241 2.14873 23.844C0.772577 22.4639 -0.000343935 20.5923 1.14811e-07 18.6408C0.000344164 16.6894 0.773925 14.818 2.15056 13.4384L14.156 1.43575C15.0738 0.516111 16.3185 -0.000344745 17.6161 1.72655e-07C18.2586 0.000170959 18.8948 0.127215 19.4884 0.373877C20.0819 0.620539 20.6212 0.98199 21.0754 1.43759C21.5296 1.89319 21.8899 2.43402 22.1356 3.0292C22.3814 3.62438 22.5077 4.26226 22.5076 4.90641C22.5074 5.55055 22.3807 6.18836 22.1346 6.78341C21.8886 7.37846 21.528 7.9191 21.0736 8.37446L21.0528 8.39408L9.33598 19.7015C9.19705 19.8355 9.03316 19.9407 8.85367 20.0112C8.67418 20.0816 8.4826 20.116 8.28987 20.1122C8.09714 20.1085 7.90703 20.0667 7.73041 19.9893C7.55378 19.9119 7.3941 19.8003 7.26047 19.661C7.12684 19.5218 7.02188 19.3575 6.95159 19.1775C6.8813 18.9976 6.84705 18.8055 6.85079 18.6123C6.85454 18.4191 6.89621 18.2285 6.97343 18.0514C7.05065 17.8743 7.1619 17.7143 7.30083 17.5803L19.0066 6.28512C19.3725 5.91603 19.5772 5.41634 19.5756 4.89597C19.574 4.37561 19.3662 3.87719 18.9981 3.51038C18.8158 3.32875 18.5996 3.18489 18.3618 3.08703C18.1241 2.98916 17.8694 2.9392 17.6124 2.94C17.0934 2.94161 16.5962 3.14987 16.2303 3.51896L4.22486 15.5179C3.39917 16.346 2.93543 17.469 2.93566 18.6399C2.93577 19.2197 3.04979 19.7937 3.2712 20.3293C3.49261 20.8649 3.81708 21.3515 4.22608 21.7614C4.63508 22.1713 5.12061 22.4964 5.65493 22.7181C6.18926 22.9399 6.76192 23.054 7.34022 23.0539C8.50815 23.0536 9.62816 22.5883 10.4539 21.7602L20.4902 11.7059C20.6267 11.569 20.7888 11.4604 20.9672 11.3864C21.1455 11.3123 21.3367 11.2742 21.5298 11.2742C21.7229 11.2742 21.914 11.3123 22.0924 11.3864C22.2708 11.4604 22.4329 11.569 22.5694 11.7059C22.7059 11.8427 22.8142 12.0052 22.8881 12.184C22.962 12.3629 23 12.5545 23 12.7481C23 12.9416 22.962 13.1333 22.8881 13.3121C22.8142 13.491 22.7059 13.6534 22.5694 13.7903L22.5645 13.7915Z" fill="black"/>
</svg>
