<svg width="48" height="48" viewBox="0 0 48 48" fill="none" xmlns="http://www.w3.org/2000/svg">
<g id="Group 82">
<rect id="Rectangle 56" width="48" height="48" rx="24" fill="#D3EECD"/>
<path id="Vector" d="M27.3772 12.0296V35.9619C27.3801 36.141 27.3382 36.3178 27.2555 36.4751C27.1728 36.6324 27.0522 36.7648 26.9053 36.8594C26.7385 36.9622 26.5456 37.0106 26.3519 36.9981C26.1581 36.9856 25.9725 36.9129 25.8193 36.7894L17.9066 30.4138C17.8492 30.3669 17.8029 30.307 17.7712 30.2388C17.7394 30.1706 17.723 30.0958 17.7232 30.0201V17.9789C17.7234 17.9029 17.7404 17.8279 17.7728 17.7597C17.8052 17.6914 17.8522 17.6317 17.9102 17.5852L25.8229 11.2096C25.9963 11.0704 26.2103 10.9965 26.4296 11.0001C26.649 11.0038 26.8606 11.0847 27.0296 11.2296C27.1406 11.3284 27.2293 11.4512 27.2894 11.5895C27.3495 11.7278 27.3794 11.878 27.3772 12.0296ZM15.3097 17.9989H11.9308C11.4187 17.9989 10.9276 18.2097 10.5655 18.5848C10.2034 18.9599 10 19.4686 10 19.9991V27.9999C10 28.5304 10.2034 29.0391 10.5655 29.4142C10.9276 29.7893 11.4187 30.0001 11.9308 30.0001H15.3097C15.4377 30.0001 15.5605 29.9474 15.651 29.8536C15.7415 29.7598 15.7924 29.6326 15.7924 29.5V18.499C15.7924 18.3664 15.7415 18.2392 15.651 18.1454C15.5605 18.0516 15.4377 17.9989 15.3097 17.9989ZM30.6076 20.6042C30.5123 20.691 30.4344 20.7964 30.3785 20.9144C30.3225 21.0324 30.2895 21.1606 30.2815 21.2918C30.2734 21.423 30.2904 21.5546 30.3314 21.679C30.3725 21.8034 30.4368 21.9182 30.5208 22.0168C30.9864 22.5647 31.2433 23.2696 31.2433 23.9995C31.2433 24.7294 30.9864 25.4343 30.5208 25.9822C30.4346 26.0803 30.3681 26.1952 30.3252 26.3202C30.2822 26.4452 30.2638 26.5778 30.2708 26.7102C30.2778 26.8427 30.3102 26.9724 30.3661 27.0917C30.422 27.2111 30.5002 27.3178 30.5963 27.4055C30.6923 27.4932 30.8043 27.5603 30.9256 27.6028C31.0469 27.6452 31.1752 27.6623 31.3029 27.6529C31.4307 27.6435 31.5553 27.6079 31.6697 27.5482C31.784 27.4884 31.8857 27.4057 31.9688 27.3048C32.7453 26.3916 33.1737 25.2164 33.1737 23.9995C33.1737 22.7826 32.7453 21.6074 31.9688 20.6942C31.8851 20.5953 31.7832 20.5144 31.6692 20.4563C31.5552 20.3982 31.4313 20.364 31.3045 20.3557C31.1777 20.3473 31.0505 20.3649 30.9303 20.4076C30.8101 20.4502 30.6992 20.517 30.604 20.6042H30.6076ZM35.542 17.3326C35.459 17.2298 35.3568 17.1453 35.2415 17.0842C35.1263 17.023 35.0004 16.9866 34.8713 16.9769C34.7421 16.9672 34.6125 16.9845 34.4899 17.0278C34.3674 17.0711 34.2546 17.1395 34.1581 17.2289C34.0616 17.3183 33.9834 17.4269 33.9282 17.5482C33.8731 17.6695 33.842 17.8011 33.8369 17.9351C33.8319 18.0691 33.8529 18.2028 33.8987 18.3283C33.9445 18.4537 34.0142 18.5683 34.1036 18.6653C35.3703 20.1322 36.0706 22.0313 36.0706 23.9995C36.0706 25.9677 35.3703 27.8668 34.1036 29.3337C34.0142 29.4307 33.9445 29.5453 33.8987 29.6708C33.8529 29.7962 33.8319 29.9299 33.8369 30.0639C33.842 30.1979 33.8731 30.3295 33.9282 30.4508C33.9834 30.5721 34.0616 30.6807 34.1581 30.7701C34.2546 30.8595 34.3674 30.9279 34.4899 30.9712C34.6125 31.0145 34.7421 31.0318 34.8713 31.0221C35.0004 31.0124 35.1263 30.976 35.2415 30.9148C35.3568 30.8537 35.459 30.7692 35.542 30.6664C37.1249 28.8328 38 26.4593 38 23.9995C38 21.5397 37.1249 19.1662 35.542 17.3326Z" fill="black"/>
</g>
</svg>
