<svg width="56" height="56" viewBox="0 0 56 56" fill="none" xmlns="http://www.w3.org/2000/svg">
<g id="Group 81">
<rect id="Rectangle 55" width="56" height="56" rx="28" fill="#D3EECD"/>
<path id="Vector" d="M26.9988 20.9959C26.9988 20.7979 27.0575 20.6044 27.1673 20.4399C27.2772 20.2753 27.4334 20.147 27.6161 20.0713C27.7988 19.9955 27.9998 19.9757 28.1938 20.0143C28.3877 20.0529 28.5659 20.1482 28.7057 20.2882C28.8456 20.4282 28.9408 20.6065 28.9794 20.8006C29.018 20.9948 28.9982 21.196 28.9225 21.3789C28.8468 21.5617 28.7186 21.718 28.5542 21.828C28.3898 21.938 28.1965 21.9967 27.9987 21.9967C27.7335 21.9967 27.4792 21.8912 27.2917 21.7035C27.1042 21.5159 26.9988 21.2613 26.9988 20.9959ZM29.9985 29.0022C29.9985 29.2001 30.0571 29.3936 30.167 29.5582C30.2769 29.7228 30.433 29.8511 30.6157 29.9268C30.7984 30.0026 30.9995 30.0224 31.1934 29.9838C31.3874 29.9451 31.5655 29.8498 31.7054 29.7099C31.8452 29.5699 31.9405 29.3916 31.979 29.1974C32.0176 29.0033 31.9978 28.8021 31.9221 28.6192C31.8465 28.4363 31.7183 28.28 31.5539 28.1701C31.3894 28.0601 31.1961 28.0014 30.9984 28.0014C30.7332 28.0014 30.4788 28.1068 30.2913 28.2945C30.1038 28.4822 29.9985 28.7368 29.9985 29.0022ZM36.0603 33.4394C37.3255 32.376 38.3361 31.0418 39.0175 29.5353C39.6989 28.0288 40.0337 26.3884 39.9973 24.7351C39.9973 24.6433 39.9936 24.552 39.9861 24.4611C39.9781 24.3339 39.9219 24.2145 39.829 24.1273C39.7361 24.0401 39.6135 23.9917 39.4861 23.992H36.4665L33.5756 27.4635C33.9367 28.0726 34.071 28.7899 33.9548 29.4885C33.8386 30.1872 33.4794 30.8222 32.9406 31.2814C32.4018 31.7406 31.7182 31.9944 31.0106 31.9979C30.303 32.0014 29.6169 31.7544 29.0737 31.3005C28.5304 30.8466 28.165 30.2152 28.0419 29.5177C27.9188 28.8202 28.0461 28.1016 28.4012 27.489C28.7563 26.8763 29.3163 26.4091 29.9823 26.1697C30.6483 25.9304 31.3774 25.9345 32.0407 26.1812L35.2291 22.3507C35.3236 22.239 35.4414 22.1495 35.5742 22.0883C35.707 22.0271 35.8516 21.9958 35.9978 21.9967H38.8899C38.9702 21.9968 39.0492 21.9775 39.1205 21.9406C39.1917 21.9037 39.253 21.8501 39.2992 21.7845C39.3454 21.7189 39.3752 21.6431 39.3859 21.5635C39.3967 21.484 39.3882 21.403 39.3611 21.3274C37.9063 17.2429 34.1055 14.2405 29.591 14.0004H29.5173C29.4501 13.9978 29.383 14.0089 29.3202 14.0329C29.2574 14.0569 29.2 14.0934 29.1516 14.1401C29.1032 14.1868 29.0646 14.2429 29.0384 14.3048C29.0121 14.3668 28.9985 14.4334 28.9986 14.5007V18.1599C29.6657 18.396 30.228 18.8605 30.586 19.4714C30.9441 20.0823 31.0748 20.8002 30.9552 21.4983C30.8355 22.1963 30.4731 22.8295 29.9321 23.286C29.3911 23.7425 28.7063 23.9929 27.9987 23.9929C27.2911 23.9929 26.6063 23.7425 26.0653 23.286C25.5243 22.8295 25.1619 22.1963 25.0423 21.4983C24.9226 20.8002 25.0533 20.0823 25.4114 19.4714C25.7694 18.8605 26.3317 18.396 26.9988 18.1599V14.7822C26.999 14.7069 26.9822 14.6326 26.9497 14.5647C26.9172 14.4968 26.8698 14.4371 26.8111 14.3901C26.7524 14.3431 26.6838 14.31 26.6104 14.2932C26.5371 14.2764 26.461 14.2763 26.3876 14.2931C24.0359 14.8712 21.94 16.2086 20.4238 18.0985C18.9077 19.9885 18.0558 22.3257 17.9999 24.7488L15.1939 30.1456L15.1664 30.2019C14.9619 30.6717 14.9453 31.2022 15.1199 31.684C15.2945 32.1658 15.6471 32.5621 16.1051 32.7914L16.1363 32.8064L18.9997 34.1187V37.9968C18.9997 38.5276 19.2104 39.0368 19.5855 39.4121C19.9605 39.7875 20.4691 39.9984 20.9995 39.9984H25.9989V40.9992C25.9989 41.2646 26.1043 41.5191 26.2918 41.7068C26.4793 41.8945 26.7336 42 26.9988 42H35.969C36.146 42.0016 36.3205 41.9586 36.4765 41.8749C36.6525 41.7788 36.7955 41.632 36.8871 41.4536C36.9787 41.2751 37.0146 41.0732 36.9902 40.8741L36.0603 33.4394Z" fill="black"/>
</g>
</svg>
