<svg width="56" height="56" viewBox="0 0 56 56" fill="none" xmlns="http://www.w3.org/2000/svg">
<g id="Group 83">
<rect id="Rectangle 80" width="56" height="56" rx="28" fill="#D3EECD"/>
<path id="Vector" d="M41.7908 14.2123C41.4065 13.8279 40.9502 13.5231 40.4481 13.3151C39.9459 13.1071 39.4077 13 38.8641 13C38.3206 13 37.7824 13.1071 37.2802 13.3151C36.778 13.5231 36.3218 13.8279 35.9375 14.2123C35.9194 14.2304 35.9013 14.2498 35.8832 14.2705L28.9758 22.3405L27.6114 20.9724C27.3232 20.6841 26.981 20.4553 26.6043 20.2993C26.2276 20.1432 25.8239 20.0629 25.4161 20.0629C25.0084 20.0629 24.6047 20.1432 24.228 20.2993C23.8513 20.4553 23.5091 20.6841 23.2208 20.9724L13.3028 30.8903C13.1089 31.0842 13 31.3472 13 31.6215C13 31.8957 13.1089 32.1587 13.3028 32.3527L23.6489 42.6973C23.8429 42.8911 24.106 43 24.3802 43C24.6545 43 24.9176 42.8911 25.1116 42.6973L35.0296 32.7859C35.318 32.4977 35.5468 32.1555 35.7028 31.7789C35.8589 31.4023 35.9393 30.9986 35.9393 30.5909C35.9393 30.1832 35.8589 29.7796 35.7028 29.4029C35.5468 29.0263 35.318 28.6841 35.0296 28.3959L33.6613 27.0292L41.7326 20.1138C41.752 20.0957 41.7727 20.0776 41.7908 20.0582C42.5651 19.2825 43 18.2312 43 17.1353C43 16.0393 42.5651 14.988 41.7908 14.2123ZM24.3783 40.5042L22.2211 38.3461L25.1103 35.4561C25.2961 35.2605 25.3982 35.0001 25.3947 34.7303C25.3913 34.4606 25.2826 34.2029 25.0918 34.0121C24.901 33.8214 24.6432 33.7127 24.3735 33.7092C24.1037 33.7058 23.8432 33.8078 23.6476 33.9936L20.7572 36.8823L19.1173 35.2427L22.0064 32.3527C22.1923 32.1571 22.2944 31.8967 22.2909 31.627C22.2874 31.3572 22.1787 31.0995 21.988 30.9087C21.7972 30.718 21.5394 30.6093 21.2696 30.6058C20.9998 30.6024 20.7394 30.7044 20.5438 30.8903L17.6533 33.779L15.4949 31.6221L22.0064 25.1128L30.8899 33.9949L24.3783 40.5042Z" fill="black"/>
</g>
</svg>
