<svg width="56" height="56" viewBox="0 0 56 56" fill="none" xmlns="http://www.w3.org/2000/svg">
<g id="Group 82">
<rect id="Rectangle 56" width="56" height="56" rx="28" fill="#D3EECD"/>
<path id="Vector" d="M40.6923 15H15.3077C14.6957 15 14.1087 15.2394 13.6759 15.6657C13.2431 16.0919 13 16.67 13 17.2727V37.7273C13 38.33 13.2431 38.9081 13.6759 39.3343C14.1087 39.7606 14.6957 40 15.3077 40H40.6923C41.3043 40 41.8913 39.7606 42.3241 39.3343C42.7569 38.9081 43 38.33 43 37.7273V17.2727C43 16.67 42.7569 16.0919 42.3241 15.6657C41.8913 15.2394 41.3043 15 40.6923 15ZM22.9231 30C23.1679 30.1808 23.3297 30.45 23.373 30.7484C23.4163 31.0467 23.3375 31.3498 23.1538 31.5909C22.9702 31.832 22.6969 31.9914 22.3939 32.034C22.091 32.0767 21.7833 31.999 21.5385 31.8182L16.9231 28.4091C16.7798 28.3032 16.6635 28.166 16.5834 28.0082C16.5032 27.8504 16.4615 27.6764 16.4615 27.5C16.4615 27.3236 16.5032 27.1496 16.5834 26.9918C16.6635 26.834 16.7798 26.6968 16.9231 26.5909L21.5385 23.1818C21.7833 23.001 22.091 22.9233 22.3939 22.966C22.6969 23.0086 22.9702 23.168 23.1538 23.4091C23.3375 23.6502 23.4163 23.9533 23.373 24.2516C23.3297 24.55 23.1679 24.8192 22.9231 25L19.538 27.5L22.9231 30ZM31.4168 19.858L26.8014 35.767C26.7621 35.9131 26.6936 36.0499 26.5999 36.1695C26.5063 36.2892 26.3893 36.3892 26.2559 36.4638C26.1225 36.5384 25.9753 36.5861 25.823 36.604C25.6707 36.6219 25.5163 36.6097 25.3688 36.5682C25.2213 36.5266 25.0837 36.4565 24.9641 36.362C24.8444 36.2674 24.7451 36.1504 24.672 36.0176C24.5988 35.8848 24.5533 35.7389 24.538 35.5886C24.5228 35.4383 24.5381 35.2865 24.5832 35.142L29.1986 19.233C29.2873 18.9485 29.4857 18.7096 29.7513 18.5677C30.0169 18.4258 30.3284 18.3922 30.6189 18.474C30.9094 18.5559 31.1557 18.7467 31.3049 19.0055C31.4541 19.2642 31.4943 19.5703 31.4168 19.858ZM39.0769 28.4091L34.4615 31.8182C34.2167 31.999 33.909 32.0767 33.6061 32.034C33.3031 31.9914 33.0298 31.832 32.8462 31.5909C32.6625 31.3498 32.5837 31.0467 32.627 30.7484C32.6703 30.45 32.8321 30.1808 33.0769 30L36.462 27.5L33.0769 25C32.9557 24.9105 32.8536 24.7983 32.7764 24.6699C32.6992 24.5415 32.6484 24.3993 32.627 24.2516C32.6056 24.1039 32.6139 23.9534 32.6515 23.8089C32.6891 23.6643 32.7552 23.5285 32.8462 23.4091C32.9371 23.2897 33.051 23.1891 33.1814 23.1131C33.3117 23.0371 33.456 22.9871 33.6061 22.966C33.7561 22.9449 33.9088 22.9531 34.0556 22.9901C34.2024 23.0271 34.3403 23.0923 34.4615 23.1818L39.0769 26.5909C39.2202 26.6968 39.3365 26.834 39.4166 26.9918C39.4968 27.1496 39.5385 27.3236 39.5385 27.5C39.5385 27.6764 39.4968 27.8504 39.4166 28.0082C39.3365 28.166 39.2202 28.3032 39.0769 28.4091Z" fill="black"/>
</g>
</svg>
