<svg width="64" height="64" viewBox="0 0 64 64" fill="none" xmlns="http://www.w3.org/2000/svg">
<g id="Group 124">
<rect id="Rectangle 56" width="64" height="64" rx="32" fill="#F7F262"/>
<path id="Vector" d="M42.4614 19.2H21.5384C20.706 19.2 19.9077 19.5266 19.3191 20.1079C18.7306 20.6893 18.3999 21.4778 18.3999 22.3V36.7666C18.3999 37.5888 18.7306 38.3773 19.3191 38.9586C19.9077 39.54 20.706 39.8666 21.5384 39.8666H30.9537V41.9333H27.8153C27.5378 41.9333 27.2717 42.0422 27.0755 42.2359C26.8794 42.4297 26.7691 42.6926 26.7691 42.9666C26.7691 43.2407 26.8794 43.5035 27.0755 43.6973C27.2717 43.8911 27.5378 44 27.8153 44H36.1845C36.462 44 36.7281 43.8911 36.9243 43.6973C37.1205 43.5035 37.2307 43.2407 37.2307 42.9666C37.2307 42.6926 37.1205 42.4297 36.9243 42.2359C36.7281 42.0422 36.462 41.9333 36.1845 41.9333H33.0461V39.8666H42.4614C43.2938 39.8666 44.0921 39.54 44.6807 38.9586C45.2692 38.3773 45.5999 37.5888 45.5999 36.7666V22.3C45.5999 21.4778 45.2692 20.6893 44.6807 20.1079C44.0921 19.5266 43.2938 19.2 42.4614 19.2ZM42.4614 37.7999H21.5384C21.2609 37.7999 20.9948 37.6911 20.7986 37.4973C20.6024 37.3035 20.4922 37.0407 20.4922 36.7666V34.7H43.5076V36.7666C43.5076 37.0407 43.3974 37.3035 43.2012 37.4973C43.005 37.6911 42.7389 37.7999 42.4614 37.7999Z" fill="black"/>
</g>
</svg>
