<svg width="64" height="64" viewBox="0 0 64 64" fill="none" xmlns="http://www.w3.org/2000/svg">
<g id="Group 66">
<circle id="Ellipse 25" cx="31.9999" cy="32.8002" r="21.6" fill="black"/>
<path id="Vector" d="M32 0C25.671 0 19.4841 1.87677 14.2218 5.39297C8.95939 8.90917 4.85787 13.9069 2.43587 19.7541C0.0138651 25.6014 -0.619842 32.0355 0.614885 38.2429C1.84961 44.4503 4.89732 50.1521 9.37259 54.6274C13.8479 59.1027 19.5497 62.1504 25.7571 63.3851C31.9645 64.6198 38.3986 63.9861 44.2459 61.5641C50.0931 59.1421 55.0908 55.0406 58.607 49.7782C62.1232 44.5159 64 38.329 64 32C63.991 23.5158 60.6167 15.3817 54.6175 9.38248C48.6183 3.38325 40.4842 0.00895944 32 0ZM43.5877 36.2031L33.7415 46.0492C33.5129 46.2781 33.2415 46.4596 32.9426 46.5835C32.6438 46.7074 32.3235 46.7712 32 46.7712C31.6765 46.7712 31.3562 46.7074 31.0574 46.5835C30.7586 46.4596 30.4871 46.2781 30.2585 46.0492L20.4123 36.2031C19.9504 35.7412 19.6909 35.1147 19.6909 34.4615C19.6909 33.8083 19.9504 33.1819 20.4123 32.72C20.8742 32.2581 21.5007 31.9986 22.1539 31.9986C22.8071 31.9986 23.4335 32.2581 23.8954 32.72L29.5385 38.3661V19.6923C29.5385 19.0395 29.7978 18.4134 30.2594 17.9517C30.7211 17.4901 31.3472 17.2308 32 17.2308C32.6528 17.2308 33.2789 17.4901 33.7406 17.9517C34.2022 18.4134 34.4615 19.0395 34.4615 19.6923V38.3661L40.1046 32.72C40.5665 32.2581 41.193 31.9986 41.8462 31.9986C42.4994 31.9986 43.1258 32.2581 43.5877 32.72C44.0496 33.1819 44.3091 33.8083 44.3091 34.4615C44.3091 35.1147 44.0496 35.7412 43.5877 36.2031Z" fill="#F7F262"/>
</g>
</svg>
