<svg width="43" height="76" viewBox="0 0 43 76" fill="none" xmlns="http://www.w3.org/2000/svg">
<path d="M42.8975 37.9999C42.8975 17.0696 33.4954 0.102311 21.8975 0.10231C10.2995 0.10231 0.897462 17.0696 0.897461 37.9999C0.897461 58.9301 10.2995 75.8975 21.8975 75.8975C33.4954 75.8975 42.8975 58.9301 42.8975 37.9999Z" fill="white"/>
<path d="M4.89746 37.9998C4.89746 47.9142 12.9563 55.9513 22.8975 55.9513C32.8386 55.9513 40.8975 47.9142 40.8975 37.9998C40.8975 28.0855 32.8386 20.0483 22.8975 20.0483C12.9563 20.0483 4.89746 28.0855 4.89746 37.9998Z" fill="#110F10"/>
<path d="M14.8975 28.027C15.0733 28.025 15.2453 28.0788 15.3895 28.1785C15.5335 28.2803 15.6427 28.4239 15.7015 28.5875L16.9381 31.9783L20.3383 33.211C20.5025 33.2708 20.6439 33.3805 20.7439 33.5241C20.8439 33.6678 20.8975 33.8373 20.8975 34.0128C20.8975 34.1863 20.8439 34.3579 20.7439 34.5015C20.6439 34.6451 20.5025 34.7528 20.3383 34.8147L16.9377 36.0473L15.7015 39.4361C15.6407 39.6017 15.5309 39.7413 15.3871 39.8411C15.2435 39.9408 15.0725 39.9946 14.8975 39.9946C14.7225 39.9946 14.5515 39.9408 14.4079 39.8411C14.2641 39.7413 14.1543 39.6017 14.0935 39.4361L12.8573 36.0473L9.45666 34.8147C9.29246 34.7528 9.15106 34.6451 9.05106 34.5015C8.95106 34.3579 8.89746 34.1863 8.89746 34.0128C8.89746 33.8373 8.95106 33.6678 9.05106 33.5241C9.15106 33.3805 9.29246 33.2708 9.45666 33.211L12.8573 31.9783L14.0935 28.5875C14.1523 28.4239 14.2615 28.2803 14.4055 28.1785C14.5497 28.0788 14.7217 28.025 14.8975 28.027Z" fill="white"/>
</svg>
