<svg width="138" height="74" viewBox="0 0 138 74" fill="none" xmlns="http://www.w3.org/2000/svg">
<ellipse cx="69" cy="37" rx="69" ry="37" fill="white"/>
<ellipse cx="68.9999" cy="38.7618" rx="32.6842" ry="31.7143" transform="rotate(-180 68.9999 38.7618)" fill="#1C191C"/>
<path d="M88.7366 22.1943C88.7388 22.4702 88.6524 22.74 88.4893 22.966C88.3262 23.1921 88.0946 23.3632 87.8267 23.4556L82.3288 25.3956L80.3304 30.7295C80.2319 30.987 80.0545 31.2091 79.8221 31.3659C79.5898 31.5227 79.3135 31.6068 79.0304 31.6068C78.7474 31.6068 78.4711 31.5227 78.2387 31.3659C78.0063 31.2091 77.829 30.987 77.7305 30.7295L75.732 25.3948L70.2342 23.4556C69.9688 23.3601 69.7399 23.188 69.5783 22.9625C69.4167 22.737 69.3301 22.4689 69.3301 22.1943C69.3301 21.9196 69.4167 21.6516 69.5783 21.4261C69.7399 21.2006 69.9688 21.0285 70.2342 20.9329L75.732 18.9938L77.7305 13.6591C77.829 13.4016 78.0063 13.1795 78.2387 13.0227C78.4711 12.8659 78.7474 12.7818 79.0304 12.7818C79.3135 12.7818 79.5898 12.8659 79.8221 13.0227C80.0545 13.1795 80.2319 13.4016 80.3304 13.6591L82.3297 18.9938L87.8267 20.9329C88.0946 21.0254 88.3262 21.1965 88.4893 21.4226C88.6524 21.6486 88.7388 21.9184 88.7366 22.1943Z" fill="white"/>
</svg>
