<svg width="16" height="16" viewBox="0 0 16 16" fill="none" xmlns="http://www.w3.org/2000/svg">
<path fill-rule="evenodd" clip-rule="evenodd" d="M0.39418 2.26851C0 3.08939 0 4.15292 0 6.28V9.72C0 11.8471 0 12.9106 0.39418 13.7315C0.787768 14.5511 1.44886 15.2122 2.26851 15.6058C3.08939 16 4.15292 16 6.28 16H7.68515C7.57932 16 7.49357 15.9134 7.49357 15.8065V10.3912H6.19158C6.08575 10.3912 6 10.3045 6 10.1976V8.22946C6 8.12254 6.08575 8.03591 6.19158 8.03591H7.5584V6.57454C7.53116 6.4163 7.41717 5.5036 8.2372 4.74133C8.9773 4.05346 9.91422 4 10.1838 4C10.2196 4 10.244 4.00089 10.2549 4.00143H11.8084C11.9143 4.00143 12 4.08806 12 4.19498V6.02494C12 6.13182 11.9143 6.21849 11.8084 6.21849H10.6812C10.2852 6.21849 10.0844 6.40952 10.0844 6.78624V8.03595H11.8084C11.863 8.03595 11.9151 8.05952 11.9514 8.10071C11.9877 8.14186 12.0049 8.19679 11.9987 8.25164L11.7714 10.2453C11.7603 10.3429 11.6784 10.4167 11.5811 10.4167H10.0843V15.8065C10.0843 15.9128 9.99953 15.999 9.89454 16C11.9059 15.9997 12.9334 15.9891 13.7315 15.6058C14.5511 15.2122 15.2122 14.5511 15.6058 13.7315C16 12.9106 16 11.8471 16 9.72V6.28C16 4.15292 16 3.08939 15.6058 2.26851C15.2122 1.44886 14.5511 0.787768 13.7315 0.39418C12.9106 0 11.8471 0 9.72 0H6.28C4.15292 0 3.08939 0 2.26851 0.39418C1.44886 0.787768 0.787768 1.44886 0.39418 2.26851Z" fill="#202023"/>
</svg>
