<svg width="64" height="64" viewBox="0 0 64 64" fill="none" xmlns="http://www.w3.org/2000/svg">
<g id="Group 122">
<rect id="Rectangle 56" width="64" height="64" rx="32" fill="#F7F262"/>
<path id="Vector" d="M45 27.3454C45.0016 28.8996 44.6155 30.4297 43.8767 31.7971C43.1379 33.1646 42.0698 34.3262 40.769 35.1767C39.4683 36.0273 37.9759 36.54 36.4271 36.6684C34.8782 36.7968 33.3218 36.5369 31.8987 35.9122L25.1417 43.7288C25.1261 43.747 25.1079 43.7664 25.0911 43.7833C24.3121 44.5623 23.2555 45 22.1538 45C21.0522 45 19.9956 44.5623 19.2166 43.7833C18.4376 43.0043 18 41.9476 18 40.8459C18 39.7442 18.4376 38.6876 19.2166 37.9085C19.2348 37.8917 19.253 37.8735 19.2724 37.8579L27.0886 31.1018C26.3883 29.4998 26.1509 27.7336 26.4035 26.0036C26.656 24.2735 27.3882 22.6489 28.5172 21.3139C29.6461 19.979 31.1265 18.9871 32.7906 18.4509C34.4546 17.9146 36.2355 17.8555 37.9315 18.2801C38.1063 18.3239 38.2667 18.4125 38.3969 18.5371C38.5271 18.6617 38.6227 18.8181 38.6741 18.9908C38.7256 19.1636 38.7312 19.3467 38.6904 19.5223C38.6497 19.6979 38.5639 19.8598 38.4416 19.9922L33.5782 25.2686L34.3128 28.6888L37.7316 29.4222L43.0077 24.5521C43.14 24.4297 43.302 24.3439 43.4775 24.3032C43.6531 24.2624 43.8362 24.268 44.009 24.3195C44.1817 24.3709 44.338 24.4665 44.4626 24.5967C44.5873 24.7269 44.6758 24.8873 44.7196 25.0622C44.906 25.8089 45.0001 26.5757 45 27.3454Z" fill="black"/>
</g>
</svg>
