<svg width="20" height="16" viewBox="0 0 20 16" fill="none" xmlns="http://www.w3.org/2000/svg">
<path id="Vector" d="M20 8C20 8.33501 19.8736 8.6563 19.6485 8.89319C19.4235 9.13008 19.1183 9.26316 18.8 9.26316H1.2C0.88174 9.26316 0.576516 9.13008 0.351472 8.89319C0.126428 8.6563 0 8.33501 0 8C0 7.66499 0.126428 7.3437 0.351472 7.10681C0.576516 6.86992 0.88174 6.73684 1.2 6.73684H18.8C19.1183 6.73684 19.4235 6.86992 19.6485 7.10681C19.8736 7.3437 20 7.66499 20 8ZM1.2 2.52632H18.8C19.1183 2.52632 19.4235 2.39323 19.6485 2.15635C19.8736 1.91946 20 1.59817 20 1.26316C20 0.928148 19.8736 0.606858 19.6485 0.36997C19.4235 0.133082 19.1183 0 18.8 0H1.2C0.88174 0 0.576516 0.133082 0.351472 0.36997C0.126428 0.606858 0 0.928148 0 1.26316C0 1.59817 0.126428 1.91946 0.351472 2.15635C0.576516 2.39323 0.88174 2.52632 1.2 2.52632ZM18.8 13.4737H1.2C0.88174 13.4737 0.576516 13.6068 0.351472 13.8437C0.126428 14.0805 0 14.4018 0 14.7368C0 15.0719 0.126428 15.3931 0.351472 15.63C0.576516 15.8669 0.88174 16 1.2 16H18.8C19.1183 16 19.4235 15.8669 19.6485 15.63C19.8736 15.3931 20 15.0719 20 14.7368C20 14.4018 19.8736 14.0805 19.6485 13.8437C19.4235 13.6068 19.1183 13.4737 18.8 13.4737Z" fill="black"/>
</svg>
