<svg width="16" height="17" viewBox="0 0 16 17" fill="none" xmlns="http://www.w3.org/2000/svg">
<g id="Instagram">
<path id="Vector" d="M12.0475 0H3.9525C2.90454 0.000998972 1.89978 0.420306 1.15876 1.16589C0.417735 1.91147 0.00099286 2.92242 0 3.97683V12.1217C0.00099286 13.1761 0.417735 14.187 1.15876 14.9326C1.89978 15.6782 2.90454 16.0975 3.9525 16.0985H12.0475C13.0953 16.0971 14.0999 15.6777 14.8408 14.9322C15.5817 14.1867 15.9986 13.176 16 12.1217V3.97683C15.9986 2.92254 15.5817 1.91183 14.8408 1.16633C14.0999 0.420832 13.0953 0.0013976 12.0475 0ZM11.965 5.08109C11.764 5.08084 11.5676 5.02063 11.4006 4.90806C11.2336 4.7955 11.1036 4.63565 11.0269 4.44871C10.9502 4.26178 10.9303 4.05616 10.9698 3.85787C11.0092 3.65957 11.1062 3.4775 11.2485 3.33467C11.3908 3.19185 11.572 3.09469 11.7692 3.05548C11.9664 3.01627 12.1707 3.03677 12.3563 3.11439C12.5419 3.19201 12.7005 3.32327 12.8119 3.49155C12.9234 3.65984 12.9827 3.85761 12.9825 4.05984C12.9823 4.19412 12.9559 4.32705 12.9047 4.45104C12.8534 4.57503 12.7784 4.68766 12.684 4.78249C12.5895 4.87732 12.4774 4.9525 12.354 5.00373C12.2306 5.05497 12.0985 5.08125 11.965 5.08109ZM8 4.21579C8.75355 4.21579 9.49017 4.44062 10.1167 4.86185C10.7433 5.28307 11.2316 5.88177 11.52 6.58225C11.8084 7.28272 11.8838 8.0535 11.7368 8.79712C11.5898 9.54073 11.2269 10.2238 10.6941 10.7599C10.1612 11.296 9.48236 11.6611 8.74329 11.809C8.00423 11.957 7.23816 11.881 6.54198 11.5909C5.84579 11.3008 5.25075 10.8094 4.8321 10.179C4.41345 9.54859 4.19 8.80743 4.19 8.04925C4.19145 7.033 4.59333 6.0588 5.30753 5.3402C6.02173 4.62161 6.98997 4.21726 8 4.21579Z" fill="#202023"/>
<path id="Vector_2" d="M8.00002 10.3559C8.45343 10.3559 8.89666 10.2206 9.27366 9.96717C9.65066 9.71371 9.9445 9.35347 10.118 8.93199C10.2915 8.51051 10.3369 8.04673 10.2485 7.59929C10.16 7.15185 9.94167 6.74085 9.62106 6.41827C9.30045 6.09568 8.89197 5.876 8.44726 5.787C8.00256 5.698 7.54162 5.74368 7.12272 5.91826C6.70382 6.09284 6.34578 6.38848 6.09387 6.7678C5.84197 7.14712 5.70752 7.59308 5.70752 8.04929C5.70818 8.66084 5.94992 9.24715 6.37971 9.67957C6.80949 10.112 7.39221 10.3552 8.00002 10.3559Z" fill="#202023"/>
</g>
</svg>
