<svg width="16" height="16" viewBox="0 0 16 16" fill="none" xmlns="http://www.w3.org/2000/svg">
<path id="Subtract" fill-rule="evenodd" clip-rule="evenodd" d="M0.39418 2.26851C0 3.08939 0 4.15292 0 6.28V9.72C0 11.8471 0 12.9106 0.39418 13.7315C0.787768 14.5511 1.44886 15.2122 2.26851 15.6058C3.08939 16 4.15292 16 6.28 16H9.72C11.8471 16 12.9106 16 13.7315 15.6058C14.5511 15.2122 15.2122 14.5511 15.6058 13.7315C16 12.9106 16 11.8471 16 9.72V6.28C16 4.15292 16 3.08939 15.6058 2.26851C15.2122 1.44886 14.5511 0.787768 13.7315 0.39418C12.9106 0 11.8471 0 9.72 0H6.28C4.15292 0 3.08939 0 2.26851 0.39418C1.44886 0.787768 0.787768 1.44886 0.39418 2.26851ZM4.87599 3.75C4.25511 3.75 3.75 4.25457 3.75 4.87476C3.75 5.49522 4.25511 5.99998 4.87599 5.99998C5.49638 5.99998 6.00108 5.4952 6.00108 4.87476C6.00111 4.25457 5.49638 3.75 4.87599 3.75ZM5.72823 6.47528H4.02186C3.94613 6.47528 3.88477 6.53667 3.88477 6.61237V12.0942C3.88477 12.1699 3.94613 12.2313 4.02186 12.2313H5.72823C5.80396 12.2313 5.86533 12.1699 5.86533 12.0942V6.61237C5.86533 6.53667 5.80396 6.47528 5.72823 6.47528ZM8.56947 6.96829C8.87676 6.63353 9.38338 6.33891 10.0687 6.33891C11.9907 6.33891 12.2498 7.72821 12.2498 9.08723V12.0941C12.2498 12.1699 12.1884 12.2312 12.1127 12.2312H10.4094C10.3337 12.2312 10.2723 12.1699 10.2723 12.0941V9.42887C10.2723 8.68264 10.2172 8.11183 9.52333 8.11183C8.88622 8.11183 8.63797 8.46789 8.63797 9.38185V12.0941C8.63797 12.1698 8.5766 12.2312 8.50087 12.2312H6.79823C6.7225 12.2312 6.66113 12.1698 6.66113 12.0941V6.61225C6.66113 6.53655 6.7225 6.47515 6.79823 6.47515H8.43238C8.50811 6.47515 8.56947 6.53655 8.56947 6.61225V6.96829Z" fill="#202023"/>
</svg>
