<svg width="723" height="144" viewBox="0 0 723 144" fill="none" xmlns="http://www.w3.org/2000/svg">
<path d="M123.615 90.9428H181.433V87.0572H145.317C126.044 87.0572 121.671 82.0382 121.671 64.7142V4H174.955V53.381H179.813V4H235.364V107.943C235.364 127.21 227.752 140 211.879 140H121.833L123.777 91.1048L123.615 90.9428Z" fill="#202023"/>
<path d="M239.529 72.2468C239.529 31.9268 259.377 0 310.313 0C325.945 0 340.877 2.9622 354.4 6.912L356.508 65.664C347.375 62.7018 337.889 61.7142 328.229 61.7142C317.34 61.7142 307.152 63.6892 307.152 72.7406C307.152 81.792 317.34 83.4378 328.229 83.4378C341.228 83.4378 347.375 82.4502 357.035 79.488L356.157 138.734C342.807 141.531 329.108 144 314.177 144C260.606 144 239.353 112.402 239.353 72.0822L239.529 72.2468Z" fill="#202023"/>
<path d="M0.175649 72.2468C0.175649 31.9268 20.0235 0 70.9604 0C86.5928 0 101.523 2.9622 115.047 6.912L117.155 65.664C108.021 62.7018 98.5367 61.7142 88.8762 61.7142C77.9862 61.7142 67.799 63.6892 67.799 72.7406C67.799 81.792 77.9862 83.4378 88.8762 83.4378C101.874 83.4378 108.021 82.4502 117.682 79.488L116.804 138.734C103.455 141.531 89.7544 144 74.8246 144C21.253 144 0 112.402 0 72.0822L0.175649 72.2468Z" fill="#202023"/>
<path d="M363.019 4H426.202V86.5714H460.755L458.78 140H363.019V4Z" fill="#202023"/>
<path d="M532.212 4C579.849 4 602.372 17.864 602.372 72.4952C602.372 127.126 579.849 140 532.212 140C484.574 140 460.755 126.796 460.755 72.4952C460.755 18.1942 486.194 4 532.212 4ZM532.212 76.1262C548.577 76.1262 560.567 76.1262 560.567 72.165C560.567 68.2038 548.577 68.2038 532.212 68.2038C515.846 68.2038 502.56 68.369 502.56 72.165C502.56 75.9612 516.007 76.1262 532.212 76.1262Z" fill="#202023"/>
<path d="M602.372 4H675.881C706.495 4 722.049 20.5142 722.049 53.5428C722.049 86.5714 706.987 105.19 676.372 105.19H657.545V140H602.536V4H602.372ZM665.731 53.7048C665.731 39.1334 663.766 37.0286 659.183 37.0286H657.218V72.162H659.183C663.766 72.162 665.731 68.2762 665.731 53.7048Z" fill="#202023"/>
</svg>
