<svg width="64" height="64" viewBox="0 0 64 64" fill="none" xmlns="http://www.w3.org/2000/svg">
<g id="Group 125">
<rect id="Rectangle 56" width="64" height="64" rx="32" fill="#F7F262"/>
<path id="Vector" d="M43.5077 19.2H20.4924C19.9375 19.2 19.4053 19.4177 19.0129 19.8053C18.6205 20.1928 18.4001 20.7185 18.4001 21.2666V41.9333C18.3976 42.3274 18.5105 42.7138 18.7251 43.046C18.9397 43.3783 19.2469 43.6422 19.6097 43.8062C19.8862 43.9334 20.1874 43.9995 20.4924 44C20.9835 43.9988 21.4584 43.8258 21.8328 43.5117L21.8445 43.5027L26.1154 39.8666H43.5077C44.0626 39.8666 44.5948 39.6489 44.9872 39.2613C45.3796 38.8737 45.6 38.3481 45.6 37.7999V21.2666C45.6 20.7185 45.3796 20.1928 44.9872 19.8053C44.5948 19.4177 44.0626 19.2 43.5077 19.2ZM36.1847 32.6333H27.8154C27.538 32.6333 27.2719 32.5244 27.0757 32.3306C26.8795 32.1368 26.7693 31.874 26.7693 31.6C26.7693 31.3259 26.8795 31.0631 27.0757 30.8693C27.2719 30.6755 27.538 30.5666 27.8154 30.5666H36.1847C36.4621 30.5666 36.7282 30.6755 36.9244 30.8693C37.1206 31.0631 37.2308 31.3259 37.2308 31.6C37.2308 31.874 37.1206 32.1368 36.9244 32.3306C36.7282 32.5244 36.4621 32.6333 36.1847 32.6333ZM36.1847 28.5H27.8154C27.538 28.5 27.2719 28.3911 27.0757 28.1973C26.8795 28.0035 26.7693 27.7407 26.7693 27.4666C26.7693 27.1926 26.8795 26.9297 27.0757 26.7359C27.2719 26.5422 27.538 26.4333 27.8154 26.4333H36.1847C36.4621 26.4333 36.7282 26.5422 36.9244 26.7359C37.1206 26.9297 37.2308 27.1926 37.2308 27.4666C37.2308 27.7407 37.1206 28.0035 36.9244 28.1973C36.7282 28.3911 36.4621 28.5 36.1847 28.5Z" fill="black"/>
</g>
</svg>
