<svg width="143" height="136" viewBox="0 0 143 136" fill="none" xmlns="http://www.w3.org/2000/svg">
<path d="M72.2115 0C119.849 0 142.372 13.864 142.372 68.4952C142.372 123.126 119.849 136 72.2115 136C24.5743 136 0.754639 122.796 0.754639 68.4952C0.754639 14.1942 26.1939 0 72.2115 0ZM72.2115 72.1262C88.5773 72.1262 100.567 72.1262 100.567 68.165C100.567 64.2038 88.5773 64.2038 72.2115 64.2038C55.8458 64.2038 42.5597 64.369 42.5597 68.165C42.5597 71.9612 56.0073 72.1262 72.2115 72.1262Z" fill="#110F10"/>
<path d="M72.5607 90C93.4909 90 110.458 80.598 110.458 69C110.458 57.402 93.4909 48 72.5607 48C51.6304 48 34.6631 57.402 34.6631 69C34.6631 80.598 51.6304 90 72.5607 90Z" fill="white"/>
<path d="M72.5607 52C62.6464 52 54.6092 60.0589 54.6092 70C54.6092 79.9411 62.6464 88 72.5607 88C82.4751 88 90.5122 79.9411 90.5122 70C90.5122 60.0589 82.4751 52 72.5607 52Z" fill="#110F10"/>
<path d="M82.5336 62C82.5356 62.1758 82.4817 62.3478 82.382 62.492C82.2803 62.636 82.1366 62.7452 81.9731 62.804L78.5823 64.0406L77.3496 67.4408C77.2897 67.605 77.18 67.7464 77.0364 67.8464C76.8928 67.9464 76.7233 68 76.5477 68C76.3742 68 76.2027 67.9464 76.0591 67.8464C75.9155 67.7464 75.8077 67.605 75.7459 67.4408L74.5133 64.0402L71.1244 62.804C70.9589 62.7432 70.8192 62.6334 70.7195 62.4896C70.6198 62.346 70.5659 62.175 70.5659 62C70.5659 61.825 70.6198 61.654 70.7195 61.5104C70.8192 61.3666 70.9589 61.2568 71.1244 61.196L74.5133 59.9598L75.7459 56.5592C75.8077 56.395 75.9155 56.2536 76.0591 56.1536C76.2027 56.0536 76.3742 56 76.5477 56C76.7233 56 76.8928 56.0536 77.0364 56.1536C77.18 56.2536 77.2897 56.395 77.3496 56.5592L78.5823 59.9598L81.9731 61.196C82.1366 61.2548 82.2803 61.364 82.382 61.508C82.4817 61.6522 82.5356 61.8242 82.5336 62Z" fill="white"/>
</svg>
