<svg width="32" height="32" viewBox="0 0 32 32" fill="none" xmlns="http://www.w3.org/2000/svg">
<path id="Vector" d="M2.09815e-06 16C1.68317e-06 19.1645 0.938385 22.2579 2.69649 24.8891C4.45459 27.5203 6.95345 29.5711 9.87706 30.7821C12.8007 31.9931 16.0177 32.3099 19.1214 31.6926C22.2251 31.0752 25.0761 29.5513 27.3137 27.3137C29.5513 25.0761 31.0752 22.2251 31.6926 19.1214C32.3099 16.0177 31.9931 12.8007 30.7821 9.87707C29.5711 6.95345 27.5203 4.45459 24.8891 2.69649C22.2579 0.938384 19.1645 2.51312e-06 16 2.09815e-06C11.7579 0.00448 7.69085 1.69163 4.69124 4.69124C1.69163 7.69085 0.00448238 11.7579 2.09815e-06 16ZM18.1015 10.2062L23.0246 15.1292C23.139 15.2435 23.2298 15.3793 23.2918 15.5287C23.3537 15.6781 23.3856 15.8383 23.3856 16C23.3856 16.1617 23.3537 16.3219 23.2918 16.4713C23.2298 16.6207 23.139 16.7565 23.0246 16.8708L18.1015 21.7938C17.8706 22.0248 17.5574 22.1545 17.2308 22.1545C16.9042 22.1545 16.5909 22.0248 16.36 21.7938C16.1291 21.5629 15.9993 21.2497 15.9993 20.9231C15.9993 20.5965 16.1291 20.2832 16.36 20.0523L19.1831 17.2308L9.84615 17.2308C9.51973 17.2308 9.20668 17.1011 8.97587 16.8703C8.74506 16.6395 8.61538 16.3264 8.61538 16C8.61538 15.6736 8.74506 15.3605 8.97587 15.1297C9.20668 14.8989 9.51973 14.7692 9.84615 14.7692L19.1831 14.7692L16.36 11.9477C16.1291 11.7167 15.9993 11.4035 15.9993 11.0769C15.9993 10.7503 16.1291 10.4371 16.36 10.2062C16.5909 9.97521 16.9042 9.84547 17.2308 9.84547C17.5574 9.84547 17.8706 9.97521 18.1015 10.2062Z" fill="#202023"/>
</svg>
