<svg width="64" height="64" viewBox="0 0 64 64" fill="none" xmlns="http://www.w3.org/2000/svg">
<g id="Group 122">
<rect id="Rectangle 56" width="64" height="64" rx="32" fill="#F7F262"/>
<path id="Vector" d="M45 20.4545V29.6591C45 29.8218 44.9354 29.9779 44.8203 30.093C44.7052 30.2081 44.5491 30.2727 44.3864 30.2727H32.7273V18.6136C32.7273 18.4509 32.7919 18.2948 32.907 18.1797C33.0221 18.0647 33.1782 18 33.3409 18H42.5455C43.1964 18 43.8208 18.2586 44.2811 18.7189C44.7414 19.1792 45 19.8036 45 20.4545ZM29.6591 18H20.4545C19.8036 18 19.1792 18.2586 18.7189 18.7189C18.2586 19.1792 18 19.8036 18 20.4545V29.6591C18 29.8218 18.0647 29.9779 18.1797 30.093C18.2948 30.2081 18.4509 30.2727 18.6136 30.2727H30.2727V18.6136C30.2727 18.4509 30.2081 18.2948 30.093 18.1797C29.9779 18.0647 29.8218 18 29.6591 18ZM44.3864 32.7273H32.7273V44.3864C32.7273 44.5491 32.7919 44.7052 32.907 44.8203C33.0221 44.9354 33.1782 45 33.3409 45H42.5455C43.1964 45 43.8208 44.7414 44.2811 44.2811C44.7414 43.8208 45 43.1964 45 42.5455V33.3409C45 33.1782 44.9354 33.0221 44.8203 32.907C44.7052 32.7919 44.5491 32.7273 44.3864 32.7273ZM18 33.3409V42.5455C18 43.1964 18.2586 43.8208 18.7189 44.2811C19.1792 44.7414 19.8036 45 20.4545 45H29.6591C29.8218 45 29.9779 44.9354 30.093 44.8203C30.2081 44.7052 30.2727 44.5491 30.2727 44.3864V32.7273H18.6136C18.4509 32.7273 18.2948 32.7919 18.1797 32.907C18.0647 33.0221 18 33.1782 18 33.3409Z" fill="black"/>
</g>
</svg>
