<svg width="21" height="21" viewBox="0 0 21 21" fill="none" xmlns="http://www.w3.org/2000/svg">
<path id="Vector" d="M20.9999 10.5C21.0034 10.8076 20.9089 11.1086 20.7339 11.361C20.5554 11.613 20.3034 11.8041 20.0164 11.907L14.0665 14.0711L11.9035 20.0214C11.7985 20.3088 11.6059 20.5562 11.3539 20.7312C11.1019 20.9062 10.8044 21 10.4964 21C10.1919 21 9.89095 20.9062 9.63895 20.7312C9.38695 20.5562 9.19791 20.3088 9.08941 20.0214L6.92648 14.0703L0.979991 11.907C0.689493 11.8006 0.444484 11.6085 0.269484 11.3568C0.0944851 11.1055 0 10.8062 0 10.5C0 10.1938 0.0944851 9.8945 0.269484 9.6432C0.444484 9.39155 0.689493 9.1994 0.979991 9.093L6.92648 6.92965L9.08941 0.978594C9.19791 0.691244 9.38695 0.443805 9.63895 0.268805C9.89095 0.0938045 10.1919 0 10.4964 0C10.8044 0 11.1019 0.0938045 11.3539 0.268805C11.6059 0.443805 11.7985 0.691244 11.9035 0.978594L14.0665 6.92965L20.0164 9.093C20.3034 9.1959 20.5554 9.38701 20.7339 9.63901C20.9089 9.89136 21.0034 10.1924 20.9999 10.5Z" fill="#0B0B0B"/>
</svg>
