<svg width="302" height="302" viewBox="0 0 302 302" fill="none" xmlns="http://www.w3.org/2000/svg">
<path d="M301.999 151C302.034 155.427 300.688 159.754 298.151 163.38C295.613 167.007 292.009 169.753 287.839 171.235L202.282 202.358L171.183 287.927C169.65 292.057 166.891 295.62 163.274 298.136C159.658 300.652 155.359 302 150.954 302C146.549 302 142.25 300.652 138.634 298.136C135.017 295.62 132.258 292.057 130.725 287.927L99.6255 202.344L14.0691 171.235C9.9396 169.702 6.3781 166.941 3.86308 163.324C1.34806 159.707 0 155.406 0 151C0 146.594 1.34806 142.293 3.86308 138.676C6.3781 135.059 9.9396 132.298 14.0691 130.765L99.6255 99.6559L130.725 14.0734C132.258 9.94263 135.017 6.38005 138.634 3.86426C142.25 1.34847 146.549 0 150.954 0C155.359 0 159.658 1.34847 163.274 3.86426C166.891 6.38005 169.65 9.94263 171.183 14.0734L202.296 99.6559L287.839 130.765C292.009 132.247 295.613 134.993 298.151 138.62C300.688 142.246 302.034 146.573 301.999 151Z" fill="#2E2E32"/>
</svg>
