<svg width="16" height="16" viewBox="0 0 16 16" fill="none" xmlns="http://www.w3.org/2000/svg">
<path id="Vector" d="M15.5992 7.32255L12.3825 10.1993L13.3625 14.5015C13.4166 14.735 13.4027 14.9799 13.3225 15.2053C13.2424 15.4306 13.0996 15.6263 12.9122 15.7676C12.7248 15.9089 12.5012 15.9894 12.2696 15.999C12.0381 16.0087 11.809 15.9469 11.6112 15.8217L8.00143 13.5191L4.38946 15.8217C4.19176 15.9462 3.96293 16.0073 3.73179 15.9974C3.50064 15.9874 3.27751 15.9067 3.0905 15.7656C2.90349 15.6244 2.76095 15.4291 2.68084 15.2041C2.60073 14.9792 2.58663 14.7347 2.64031 14.5015L3.62389 10.1993L0.407222 7.32255C0.232305 7.16587 0.105802 6.95925 0.043511 6.72849C-0.0187799 6.49774 -0.0140976 6.25308 0.0569728 6.02506C0.128043 5.79705 0.262352 5.59579 0.443126 5.44642C0.6239 5.29705 0.843128 5.20618 1.07343 5.18517L5.29084 4.83252L6.91777 0.751869C7.00583 0.529476 7.15571 0.339247 7.34835 0.205366C7.54099 0.0714847 7.7677 0 7.99964 0C8.23158 0 8.45829 0.0714847 8.65093 0.205366C8.84357 0.339247 8.99345 0.529476 9.08151 0.751869L10.7077 4.83252L14.9251 5.18517C15.1559 5.2054 15.3758 5.29576 15.5572 5.44492C15.7386 5.59409 15.8735 5.79543 15.9451 6.02372C16.0166 6.25201 16.0215 6.4971 15.9592 6.72827C15.8969 6.95945 15.7702 7.16643 15.5949 7.32329L15.5992 7.32255Z" fill="#202023"/>
</svg>
