<svg width="64" height="64" viewBox="0 0 64 64" fill="none" xmlns="http://www.w3.org/2000/svg">
<g id="Group 122">
<rect id="Rectangle 56" width="64" height="64" rx="32" fill="#F7F262"/>
<path id="Vector" d="M45.5024 44.0254C45.6203 44.1821 45.6922 44.3686 45.71 44.5639C45.7278 44.7592 45.6908 44.9555 45.6031 45.131C45.5155 45.3064 45.3806 45.4539 45.2137 45.557C45.0469 45.66 44.8546 45.7145 44.6584 45.7143H19.3407C19.1448 45.7143 18.9527 45.6598 18.7861 45.5568C18.6194 45.4538 18.4847 45.3065 18.3971 45.1313C18.3095 44.9561 18.2724 44.7599 18.29 44.5648C18.3076 44.3698 18.3792 44.1834 18.4967 44.0267C19.4308 42.7745 20.6765 41.7886 22.1098 41.167C21.3241 40.45 20.7736 39.5122 20.5305 38.4768C20.2875 37.4414 20.3632 36.3567 20.7477 35.365C21.1322 34.3734 21.8077 33.5212 22.6853 32.9203C23.5629 32.3193 24.6018 31.9978 25.6655 31.9978C26.7292 31.9978 27.7681 32.3193 28.6457 32.9203C29.5233 33.5212 30.1988 34.3734 30.5833 35.365C30.9678 36.3567 31.0435 37.4414 30.8005 38.4768C30.5574 39.5122 30.0069 40.45 29.2212 41.167C30.2553 41.6139 31.195 42.2533 31.9903 43.051C32.7856 42.2533 33.7254 41.6139 34.7595 41.167C33.9738 40.45 33.4233 39.5122 33.1802 38.4768C32.9371 37.4414 33.0128 36.3567 33.3973 35.365C33.7819 34.3734 34.4573 33.5212 35.335 32.9203C36.2126 32.3193 37.2514 31.9978 38.3152 31.9978C39.3789 31.9978 40.4177 32.3193 41.2953 32.9203C42.173 33.5212 42.8484 34.3734 43.233 35.365C43.6175 36.3567 43.6932 37.4414 43.4501 38.4768C43.207 39.5122 42.6565 40.45 41.8708 41.167C43.3108 41.7853 44.5631 42.771 45.5024 44.0254ZM18.7077 31.7914C18.8186 31.8745 18.9447 31.935 19.0789 31.9693C19.2131 32.0037 19.3527 32.0113 19.4899 31.9917C19.627 31.9721 19.7589 31.9257 19.8781 31.8552C19.9973 31.7846 20.1015 31.6912 20.1846 31.5804C20.8233 30.7289 21.6515 30.0378 22.6036 29.5618C23.5557 29.0858 24.6056 28.838 25.6701 28.838C26.7346 28.838 27.7845 29.0858 28.7366 29.5618C29.6887 30.0378 30.5169 30.7289 31.1556 31.5804C31.2539 31.7114 31.3813 31.8178 31.5278 31.891C31.6743 31.9642 31.8358 32.0023 31.9996 32.0023C32.1633 32.0023 32.3248 31.9642 32.4713 31.891C32.6178 31.8178 32.7452 31.7114 32.8435 31.5804C33.4822 30.7289 34.3104 30.0378 35.2625 29.5618C36.2146 29.0858 37.2645 28.838 38.329 28.838C39.3935 28.838 40.4434 29.0858 41.3955 29.5618C42.3476 30.0378 43.1758 30.7289 43.8145 31.5804C43.8977 31.6912 44.0019 31.7846 44.1212 31.8551C44.2405 31.9257 44.3725 31.972 44.5097 31.9915C44.6469 32.0111 44.7866 32.0034 44.9209 31.9689C45.0551 31.9345 45.1812 31.8739 45.292 31.7907C45.4029 31.7075 45.4962 31.6033 45.5668 31.4841C45.6373 31.3648 45.6837 31.2328 45.7032 31.0956C45.7227 30.9584 45.7151 30.8187 45.6806 30.6845C45.6461 30.5503 45.5856 30.4242 45.5024 30.3134C44.5682 29.0616 43.3226 28.0761 41.8893 27.455C42.675 26.738 43.2255 25.8002 43.4686 24.7648C43.7117 23.7294 43.636 22.6447 43.2514 21.6531C42.8669 20.6614 42.1915 19.8092 41.3138 19.2083C40.4362 18.6073 39.3973 18.2858 38.3336 18.2858C37.2699 18.2858 36.2311 18.6073 35.3534 19.2083C34.4758 19.8092 33.8004 20.6614 33.4158 21.6531C33.0313 22.6447 32.9556 23.7294 33.1987 24.7648C33.4417 25.8002 33.9922 26.738 34.7779 27.455C33.7438 27.9019 32.8041 28.5413 32.0088 29.339C31.2135 28.5413 30.2738 27.9019 29.2397 27.455C30.0253 26.738 30.5758 25.8002 30.8189 24.7648C31.062 23.7294 30.9863 22.6447 30.6018 21.6531C30.2172 20.6614 29.5418 19.8092 28.6642 19.2083C27.7865 18.6073 26.7477 18.2858 25.684 18.2858C24.6203 18.2858 23.5814 18.6073 22.7038 19.2083C21.8261 19.8092 21.1507 20.6614 20.7662 21.6531C20.3816 22.6447 20.3059 23.7294 20.549 24.7648C20.7921 25.8002 21.3426 26.738 22.1283 27.455C20.6882 28.0738 19.4359 29.06 18.4967 30.3147C18.4136 30.4255 18.3532 30.5516 18.3188 30.6858C18.2844 30.82 18.2768 30.9596 18.2964 31.0967C18.316 31.2339 18.3624 31.3658 18.433 31.485C18.5035 31.6042 18.5969 31.7083 18.7077 31.7914Z" fill="black"/>
</g>
</svg>
