<svg width="64" height="64" viewBox="0 0 64 64" fill="none" xmlns="http://www.w3.org/2000/svg">
<g id="Group 122">
<rect id="Rectangle 56" width="64" height="64" rx="32" fill="#F7F262"/>
<path id="Vector" d="M44.9999 31.5C45.003 31.8958 44.8827 32.2826 44.6558 32.6069C44.429 32.9311 44.1067 33.1766 43.7339 33.3091L36.0849 36.0916L33.3045 43.7418C33.1674 44.1111 32.9207 44.4296 32.5974 44.6545C32.2741 44.8794 31.8897 45 31.4959 45C31.1021 45 30.7177 44.8794 30.3944 44.6545C30.0711 44.4296 29.8243 44.1111 29.6873 43.7418L26.9069 36.0904L19.2578 33.3091C18.8886 33.172 18.5702 32.9252 18.3454 32.6018C18.1205 32.2784 18 31.8939 18 31.5C18 31.1061 18.1205 30.7216 18.3454 30.3982C18.5702 30.0748 18.8886 29.828 19.2578 29.6909L26.9069 26.9096L29.6873 19.2582C29.8243 18.8889 30.0711 18.5704 30.3944 18.3455C30.7177 18.1206 31.1021 18 31.4959 18C31.8897 18 32.2741 18.1206 32.5974 18.3455C32.9207 18.5704 33.1674 18.8889 33.3045 19.2582L36.0861 26.9096L43.7339 29.6909C44.1067 29.8234 44.429 30.0689 44.6558 30.3931C44.8827 30.7174 45.003 31.1042 44.9999 31.5Z" fill="black"/>
</g>
</svg>
